<?xml version="1.0" standalone="no"?>
<!DOCTYPE svg PUBLIC "-//W3C//DTD SVG 20010904//EN"
 "http://www.w3.org/TR/2001/REC-SVG-20010904/DTD/svg10.dtd">
<svg version="1.0" xmlns="http://www.w3.org/2000/svg"
 width="752.000000pt" height="182.000000pt" viewBox="0 0 752.000000 182.000000"
 preserveAspectRatio="xMidYMid meet">

<g transform="translate(0.000000,182.000000) scale(0.100000,-0.100000)"
fill="#000000" stroke="none">
<path d="M4591 1534 c-21 -26 -21 -36 -21 -493 0 -521 -1 -511 65 -511 40 0
62 20 70 63 3 18 5 233 3 478 -3 423 -4 448 -22 468 -27 30 -70 27 -95 -5z"/>
<path d="M3968 1491 c-206 -66 -338 -253 -338 -481 0 -138 44 -253 133 -348
98 -103 200 -144 357 -146 108 -1 165 12 252 55 48 24 59 60 31 97 -27 36 -55
38 -122 9 -198 -88 -422 3 -488 198 -25 75 -22 214 6 287 29 75 97 150 169
185 51 25 68 28 157 28 88 0 108 -4 164 -28 73 -33 104 -28 122 20 20 54 -20
91 -140 127 -75 22 -229 21 -303 -3z"/>
<path d="M1660 1420 c-11 -11 -20 -31 -20 -44 0 -27 267 -814 282 -833 15 -19
73 -16 90 5 8 9 59 122 113 250 54 128 102 229 106 225 4 -5 51 -111 105 -238
53 -126 102 -236 107 -242 10 -14 65 -17 84 -5 7 4 76 194 154 422 132 386
141 416 128 440 -8 13 -27 29 -41 34 -56 20 -64 5 -182 -349 -59 -180 -112
-323 -116 -318 -5 4 -49 109 -98 233 -73 186 -93 228 -115 240 -24 13 -30 13
-53 0 -21 -12 -44 -59 -118 -241 -50 -124 -95 -226 -101 -227 -5 -1 -58 143
-117 321 -64 190 -115 327 -125 335 -25 18 -60 15 -83 -8z"/>
<path d="M885 1423 c-37 -9 -82 -51 -118 -113 -21 -34 -37 -66 -37 -71 0 -5
-4 -9 -8 -9 -5 0 -14 -11 -20 -25 -11 -23 -9 -27 40 -54 l51 -29 21 31 c12 18
28 45 36 60 8 16 28 45 46 65 32 37 32 37 112 37 93 0 110 -11 157 -98 16 -29
32 -54 35 -57 4 -3 10 -15 14 -27 6 -18 1 -25 -26 -39 -68 -34 -66 -37 39 -61
54 -12 110 -25 124 -29 23 -5 27 -2 37 33 6 21 14 55 17 76 4 22 13 57 21 79
8 23 12 43 10 45 -2 3 -22 -7 -43 -21 -20 -14 -43 -26 -50 -26 -7 0 -31 33
-55 73 -88 149 -119 168 -275 166 -59 -1 -117 -4 -128 -6z"/>
<path d="M5150 1270 c-25 -4 -62 -15 -83 -23 -59 -25 -141 -109 -173 -180 -27
-57 -29 -71 -29 -177 0 -110 1 -118 33 -182 64 -130 169 -191 327 -192 108 0
185 26 246 83 44 43 49 71 18 102 -25 25 -52 20 -111 -21 -144 -101 -358 -20
-385 144 l-6 36 260 0 c248 0 261 1 278 20 22 25 22 89 -1 157 -43 126 -137
208 -269 232 -32 6 -59 10 -59 10 -1 -1 -21 -5 -46 -9z m147 -141 c52 -25 92
-74 100 -123 l6 -36 -207 0 -207 0 7 23 c22 73 64 122 125 146 43 18 130 12
176 -10z"/>
<path d="M5938 1269 c-130 -21 -236 -131 -267 -277 -41 -195 41 -384 197 -455
35 -16 68 -21 127 -21 89 -1 142 19 201 76 l31 29 7 -32 c9 -46 23 -59 67 -59
69 0 69 1 69 368 l0 323 -25 24 c-13 14 -32 25 -42 25 -30 0 -61 -28 -68 -60
l-7 -30 -32 25 c-73 55 -168 79 -258 64z m169 -140 c150 -72 179 -306 54 -430
-37 -38 -56 -49 -101 -58 -102 -20 -184 19 -235 110 -27 49 -30 63 -30 144 0
99 17 145 72 197 63 60 162 75 240 37z"/>
<path d="M6883 1270 c-56 -12 -94 -33 -143 -79 l-40 -38 0 29 c0 33 -39 78
-68 78 -11 0 -30 -9 -43 -19 l-24 -19 -3 -319 c-3 -364 -2 -366 65 -371 70 -5
73 6 73 263 0 251 4 266 79 320 33 23 54 30 104 33 78 4 122 -17 151 -73 19
-36 21 -61 24 -275 4 -261 6 -270 68 -270 63 0 66 15 62 302 -4 276 -11 313
-66 372 -51 55 -153 83 -239 66z"/>
<path d="M3093 1204 c-50 -18 -126 -83 -158 -134 -59 -94 -72 -262 -28 -362
31 -69 94 -131 166 -164 52 -23 76 -28 147 -28 73 -1 94 3 145 27 75 35 115
72 115 107 0 58 -49 66 -118 18 -39 -27 -58 -33 -115 -36 -85 -5 -144 15 -188
65 -34 40 -59 91 -59 123 0 20 5 20 245 20 l245 0 16 25 c18 27 15 63 -12 147
-20 61 -93 142 -158 175 -64 33 -178 41 -243 17z m160 -105 c44 -12 113 -70
122 -102 18 -62 35 -57 -178 -57 l-195 0 11 37 c22 71 101 128 182 132 11 0
37 -4 58 -10z"/>
<path d="M610 1024 c-36 -8 -86 -19 -113 -23 -58 -10 -67 -17 -36 -30 13 -5
37 -20 52 -33 l28 -23 -37 -55 c-108 -164 -109 -238 -6 -352 55 -61 80 -68
247 -68 l145 0 0 55 0 55 -122 0 c-78 0 -132 5 -148 13 -13 7 -37 33 -53 59
l-29 47 38 68 c20 37 45 80 54 95 l16 27 44 -30 c24 -16 45 -27 48 -24 3 2 -1
24 -7 47 -6 24 -14 54 -16 68 -9 52 -29 120 -34 119 -3 0 -35 -7 -71 -15z"/>
<path d="M1431 895 c-19 -14 -39 -26 -44 -28 -5 -1 16 -44 48 -95 64 -104 65
-114 11 -177 l-34 -40 -111 -3 -111 -4 0 56 c0 31 -3 56 -8 56 -4 0 -44 -37
-90 -83 l-82 -82 90 -90 90 -90 0 63 0 62 121 0 c144 0 171 10 230 84 89 110
90 160 4 301 -31 52 -62 95 -69 95 -6 -1 -27 -12 -45 -25z"/>
</g>
</svg>
