<?xml version="1.0" encoding="utf-8"?>
<!-- Designed by Vexels.com - 2016 All Rights Reserved - https://vexels.com/terms-and-conditions/  -->

<svg version="1.0" id="Capa_1" xmlns="http://www.w3.org/2000/svg" xmlns:xlink="http://www.w3.org/1999/xlink" x="0px" y="0px"
	 width="1200px" height="1200px" viewBox="0 0 1200 1200" enable-background="new 0 0 1200 1200" xml:space="preserve">
<g>
	<path fill="#39B54A" d="M755.72,275.137c19.141,16.08,37.419,35.207,53.312,57.349c7.615,10.516,14.647,21.756,20.969,33.585
		c4.369-6.894,8.872-13.707,13.53-20.411c-6.813-8.485-13.746-16.618-20.758-24.399c-30.838-33.491-64.013-59.694-96.6-79.988
		c-1.747,2.809-3.503,5.614-5.29,8.397C732.655,257.122,744.345,265.582,755.72,275.137z"/>
	<path fill="#39B54A" d="M863.754,361.151L624.637,714.486l152.076,2.137c-0.78,1.041-1.549,2.088-2.4,3.084l-3.407,4.021
		c-2.339,2.628-4.286,5.506-6.714,8.054c-2.348,2.601-4.675,5.204-6.898,7.876c-2.294,2.621-4.789,5.083-7.138,7.648l-3.494,3.869
		l-3.7,3.692c-1.222,1.239-2.47,2.454-3.66,3.719c-1.189,1.266-2.366,2.543-3.664,3.709c-9.9,9.78-20.395,18.941-31.257,27.681
		c-2.804,2.075-5.535,4.242-8.279,6.401c-2.77,2.123-5.706,4.022-8.531,6.079c-1.419,1.019-2.806,2.088-4.247,3.079l-4.403,2.853
		l-4.392,2.881c-1.452,0.983-2.895,1.981-4.423,2.84c-11.877,7.478-24.322,14.079-37.066,20.3
		c-12.755,6.239-26.095,11.333-39.685,16.241c-3.444,1.057-6.878,2.209-10.327,3.359c-0.843,0.274-1.768,0.61-2.546,0.838
		l-2.257,0.637c-1.508,0.423-3.013,0.885-4.522,1.356l-4.541,1.444c-0.426,0.122-0.653,0.251-1.245,0.368l-1.71,0.353l-3.42,0.706
		l-6.833,1.476l-3.416,0.741l-1.708,0.371l-0.854,0.185c0.616-0.036-2.584,0.341,1.164-0.033c-7.249,1.255-14.552,2.952-21.92,3.826
		l-5.538,0.841c-1.851,0.304-3.706,0.582-5.56,0.713l-11.182,1.106c-14.938,1.061-30.148,1.604-45.372,0.564
		c-3.836-0.099-7.589-0.673-11.419-0.969l-5.74-0.531c-1.907-0.22-3.791-0.547-5.695-0.812c-3.79-0.591-7.645-1.029-11.439-1.72
		l-11.383-2.242c-3.84-0.671-7.517-1.838-11.308-2.734l-5.668-1.431c-1.874-0.524-3.714-1.139-5.58-1.703
		c-3.705-1.184-7.497-2.219-11.183-3.511l-11.004-4.083c-29.216-11.37-56.769-27.663-81.043-47.812
		c-3.144-2.408-5.931-5.18-8.898-7.778l-4.399-3.953c-1.472-1.315-2.804-2.756-4.217-4.126c-2.789-2.773-5.577-5.553-8.314-8.377
		c-2.629-2.925-5.252-5.845-7.871-8.759c-10.14-11.945-19.775-24.343-28.024-37.535l-3.201-4.884l-2.935-5.027
		c-1.935-3.361-3.966-6.675-5.84-10.063c-3.436-6.921-7.216-13.688-10.188-20.784c-6.515-13.96-11.636-28.412-16.042-42.945
		c-1.926-7.303-4.15-14.753-5.477-21.623l-1.166-5.244l-0.59-2.62l-0.295-1.315l-0.245-1.526c-0.652-4.068-1.303-8.124-1.952-12.167
		l-0.841-5.171l-0.586-5.551c-0.399-3.701-0.797-7.39-1.193-11.067c-0.214-3.691-0.427-7.37-0.64-11.037
		c-0.194-3.671-0.496-7.336-0.424-10.987c-0.026-7.303-0.21-14.583,0.311-21.782c0.211-3.601,0.254-7.211,0.588-10.779
		c0.352-3.57,0.702-7.127,1.052-10.67l0.534-5.311l0.789-5.255c0.52-3.503,1.037-6.993,1.552-10.469
		c0.603-3.461,1.361-6.879,2.023-10.306c0.728-3.411,1.249-6.865,2.184-10.199c6.429-26.958,15.772-52.35,27.17-75.644
		c11.478-23.262,25.085-44.356,39.774-63.124c14.747-18.734,30.526-35.191,46.543-49.435c16.011-14.25,32.198-26.427,48.084-36.328
		c3.876-2.649,7.911-4.825,11.783-7.117c3.891-2.257,7.663-4.557,11.538-6.43c3.837-1.972,7.585-3.897,11.241-5.776
		c3.747-1.701,7.401-3.36,10.96-4.976c28.603-12.613,53.099-18.623,69.307-21.651c2.041-0.41,3.963-0.795,5.763-1.157
		c1.79-0.373,3.641-0.562,5.259-0.823c3.284-0.479,6.047-0.882,8.272-1.206c4.067-0.593,6.313-0.92,6.672-0.973
		c0.602-0.057,2.751-0.259,6.404-0.603c2.178-0.206,4.883-0.462,8.098-0.766c3.213-0.38,6.949-0.534,11.182-0.699
		c16.894-0.868,41.931-1.241,73.434,3.354c3.934,0.602,7.973,1.22,12.115,1.855c4.11,0.832,8.322,1.686,12.635,2.56
		c4.342,0.781,8.688,1.969,13.158,3.101c4.462,1.159,9.073,2.193,13.629,3.75c18.469,5.429,38.038,12.96,57.86,23.232
		c7.986,4.107,16.003,8.699,23.982,13.741c1.776-2.79,3.512-5.606,5.26-8.413c-8.229-5.118-16.422-9.877-24.527-14.26
		c-20.179-10.854-39.83-19.735-58.638-26.273c-4.643-1.814-9.333-3.156-13.87-4.657c-4.551-1.456-8.988-2.961-13.429-4.051
		c-4.422-1.182-8.74-2.337-12.954-3.464c-4.265-0.925-8.424-1.828-12.475-2.707c-2.029-0.434-4.032-0.863-6.006-1.285
		c-1.982-0.383-3.953-0.661-5.888-0.99c-3.879-0.63-7.645-1.242-11.296-1.836c-7.323-1.058-14.242-1.66-20.667-2.425
		c-6.442-0.504-12.424-0.724-17.902-1.054c-5.48-0.28-10.465-0.118-14.931-0.192c-4.468-0.036-8.417-0.056-11.815,0.176
		c-3.404,0.159-6.268,0.292-8.575,0.399c-4.617,0.218-7,0.33-7,0.33l-0.268,0.029c0,0-2.31,0.222-6.786,0.653
		c-2.238,0.215-5.018,0.482-8.321,0.8c-1.669,0.185-3.395,0.271-5.384,0.574c-1.982,0.292-4.097,0.603-6.343,0.933
		c-4.47,0.698-9.572,1.333-15.001,2.32c-5.411,1.046-11.346,2.106-17.731,3.42c-6.315,1.582-13.171,3.092-20.412,5.004
		c-3.602,1.033-7.317,2.098-11.143,3.196c-1.911,0.563-3.869,1.082-5.821,1.705c-1.94,0.662-3.907,1.333-5.9,2.013
		c-4.002,1.348-8.111,2.732-12.325,4.151c-4.147,1.618-8.397,3.277-12.748,4.976c-4.396,1.624-8.739,3.628-13.217,5.617
		c-4.462,2.021-9.113,3.936-13.632,6.335c-18.458,8.896-37.682,20.248-56.958,34.303c-19.253,14.068-38.518,30.925-56.684,50.833
		c-18.161,19.883-35.515,42.629-50.396,68.441c-14.926,25.765-27.623,54.409-37.043,85.364
		c-9.514,30.933-15.092,64.273-16.921,98.822c-0.353,4.32-0.322,8.658-0.388,13.015c-0.039,4.356-0.133,8.734-0.113,13.124
		c0.167,4.385,0.335,8.785,0.504,13.199l0.266,6.639l0.574,7.004c0.334,4.081,0.669,8.175,1.005,12.282l0.126,1.54l0.226,1.731
		l0.463,3.479l0.944,6.98c1.128,9.525,2.985,18.242,4.661,27.295c3.909,17.892,8.382,36.003,14.767,53.721
		c2.88,8.98,6.644,17.669,10.141,26.542c1.877,4.377,3.882,8.713,5.84,13.091l2.974,6.564l3.273,6.433
		c8.479,17.345,18.717,33.993,29.793,50.286c2.835,4.038,5.675,8.084,8.52,12.137c3.019,3.932,6.043,7.871,9.073,11.817
		c1.535,1.961,2.997,3.995,4.605,5.902l4.829,5.735l4.854,5.749c1.596,1.946,3.232,3.856,4.958,5.685
		c13.354,15.103,28.029,29.24,43.45,42.912c3.952,3.315,7.909,6.633,11.87,9.956c3.997,3.298,8.21,6.313,12.315,9.526l6.213,4.767
		l6.411,4.508c4.315,2.955,8.535,6.13,12.999,8.906c17.604,11.585,36.252,21.949,55.677,31.257
		c19.432,9.328,39.846,16.957,60.821,23.479l15.881,4.505c5.324,1.446,10.722,2.563,16.115,3.841l8.118,1.835l8.185,1.478
		c5.47,0.925,10.953,2.066,16.475,2.742c22.09,3.099,44.513,4.333,67.018,4.095c4.325-0.445,1.7-0.137,2.892-0.242l0.874-0.024
		l1.747-0.047l3.495-0.094l6.987-0.196l3.49-0.13l1.745-0.065c0.561-0.015,1.47-0.13,2.189-0.192l9.175-0.924l9.192-1.011
		l4.599-0.546c1.502-0.193,2.827-0.431,4.25-0.646c5.6-0.888,11.214-1.772,16.815-2.752c5.601-0.982,11.124-2.345,16.697-3.532
		l8.329-1.921l8.236-2.283c5.481-1.563,11.007-3.028,16.416-4.835l16.184-5.594c5.399-1.868,10.603-4.215,15.907-6.33l7.907-3.292
		c2.606-1.16,5.16-2.429,7.74-3.645c5.127-2.497,10.333-4.854,15.37-7.518l14.964-8.259c19.651-11.496,38.49-24.315,55.883-38.76
		c4.427-3.512,8.543-7.383,12.801-11.072l6.303-5.621l6.031-5.898c3.973-3.973,8.046-7.835,11.879-11.919
		c3.796-4.121,7.514-8.303,11.24-12.457c14.529-16.955,27.731-34.868,38.83-53.856c20.419-34.531,34.732-71.815,42.635-109.395
		l140.425,1.973L863.754,361.151z"/>
</g>
</svg>
