<?xml version="1.0" standalone="no"?>
<!DOCTYPE svg PUBLIC "-//W3C//DTD SVG 20010904//EN"
 "http://www.w3.org/TR/2001/REC-SVG-20010904/DTD/svg10.dtd">
<svg version="1.0" xmlns="http://www.w3.org/2000/svg"
 width="319.000000pt" height="158.000000pt" viewBox="0 0 319.000000 158.000000"
 preserveAspectRatio="xMidYMid meet">

<g transform="translate(0.000000,158.000000) scale(0.100000,-0.100000)"
fill="#000000" stroke="none">
<path d="M1517 1566 c-12 -13 -8 -47 33 -253 43 -215 46 -238 30 -241 -16 -3
-557 50 -853 84 -76 9 -145 13 -153 10 -12 -5 -14 -63 -14 -370 0 -349 1 -365
19 -371 10 -3 21 -15 24 -25 7 -25 3 -25 298 6 373 39 684 71 686 70 0 -1 -18
-91 -41 -201 -24 -110 -41 -206 -38 -212 2 -7 13 -13 23 -13 12 0 19 -7 19
-19 0 -37 31 -33 94 11 665 465 982 692 984 706 1 10 -14 33 -35 53 -37 35
-1003 747 -1042 769 -15 7 -23 6 -34 -4z m541 -444 c244 -179 439 -328 435
-332 -30 -27 -897 -629 -900 -626 -3 2 14 92 36 199 23 107 38 202 35 211 -3
9 -17 16 -33 16 -23 0 -439 -42 -840 -85 -79 -8 -149 -15 -157 -15 -12 0 -14
51 -14 306 l0 307 48 -5 c844 -88 983 -101 994 -90 8 8 0 66 -31 221 -46 235
-46 235 -28 225 6 -5 211 -154 455 -332z"/>
</g>
</svg>
